<svg
  version="1.1"
  viewBox="0 0 752 752"
>
  <g>
    <path d="m237.7 300.23-28.586-28.352c-5.3125-5.3242-13.914-5.1719-19.238 0.13281-5.3164 5.3047-5.332 14-0.03125 19.316l32.578 30.633c2.5508 2.5586 6.0195 1.9492 9.6328 1.9492h26.5c-18.871 23.68-31.262 52.094-35.844 80.508l-46.215 0.003907c-7.5156 0-13.602 6.6914-13.602 14.207 0 7.5117 6.0859 14.207 13.602 14.207h44.207c0.23828 23.68 6.2266 47.359 16.68 66.301h-9.8633c-3.6133 0-7.0781 2.0664-9.6328 4.625l-32.574 32.984c-5.3047 5.3164-5.293 14.09 0.023437 19.395 2.6602 2.6484 6.1289 4.0508 9.6055 4.0508 3.4844 0 6.9766-1.3164 9.6289-3.9844l28.598-28.656h21.965c26.758 33.152 68.777 54.672 111.4 57.09v-284.41z" />
    <path d="m575.51 404.42h-47.172c-5.8711-28.414-21-56.828-38.719-80.508h30.332c3.6133 0 7.0781 0.64844 9.6328-1.9141l32.578-31.629c5.3008-5.3242 5.2852-13.41-0.03125-18.715-5.3281-5.3086-13.93-5.3555-19.238-0.03125l-28.59 28.605h-128.83v284.3c42.621-2.7734 83.887-28.57 110.64-56.984h22.723l28.594 28.695c2.6562 2.668 6.1406 4.0117 9.6289 4.0117 3.4766 0 6.9492-1.3203 9.6055-3.9648 5.3164-5.3047 5.3281-13.914 0.023437-19.23l-32.574-33.297c-2.5508-2.5625-6.0195-4.6289-9.6289-4.6289h-10.418c10.578-18.941 16.656-42.621 16.895-66.301h44.551c7.5117 0 13.598-6.6992 13.598-14.207 0-7.5156-6.0859-14.207-13.602-14.207z" />
    <path d="m288.02 281.29h175.97c0-33.152-16.449-58.078-41.141-73.664l17.758-17.395c5.3125-5.3086 5.3125-13.742 0-19.059-5.3125-5.3086-13.918-5.2188-19.238 0.09375l-25.688 25.734c-6.3359-1.4492-12.91-2.2656-19.688-2.2656-6.7773 0-13.352 0.84766-19.688 2.2969l-25.691-25.684c-5.3125-5.3086-13.918-5.3086-19.238 0-5.3164 5.3086-5.3125 13.93 0 19.242l17.758 17.035c-24.672 15.59-41.117 40.512-41.117 73.664z" />
  </g>
</svg>